<svg width="24" height="25" viewBox="0 0 24 25" fill="none" xmlns="http://www.w3.org/2000/svg">
<path d="M23.6252 0.892853H22.5V1.25005C20.9336 1.59928 20.7084 3.04841 20.62 3.60215C20.578 3.86407 20.4928 4.37635 20.3872 5.00384H0.795054C0.0198496 5.00384 -0.0669509 5.72582 0.0342497 6.12527L2.33266 16.2381C2.43346 16.6376 2.85787 16.9637 3.27387 16.9637H20.4516C20.8652 16.9637 21.2024 17.2989 21.2024 17.7112C21.2024 18.1234 20.8652 18.4586 20.4516 18.4586H1.70186C1.50295 18.4586 1.31218 18.5374 1.17153 18.6776C1.03087 18.8178 0.951856 19.0079 0.951856 19.2061C0.951856 19.4044 1.03087 19.5945 1.17153 19.7347C1.31218 19.8749 1.50295 19.9536 1.70186 19.9536H2.67387C2.20454 20.2119 1.8133 20.5908 1.54089 21.051C1.26848 21.5112 1.12488 22.0357 1.12506 22.57H1.87506C1.87506 23.8079 2.88307 24.8125 4.12507 24.8125C5.36708 24.8125 6.37509 23.8079 6.37509 22.57H7.12509C7.12519 22.0357 6.98151 21.5111 6.70903 21.0509C6.43656 20.5908 6.04525 20.2118 5.57588 19.9536H16.1735C15.7042 20.2118 15.3129 20.5908 15.0404 21.0509C14.7679 21.5111 14.6242 22.0357 14.6243 22.57H15.3743C15.3855 23.1575 15.6274 23.7173 16.0483 24.1288C16.4691 24.5404 17.0352 24.771 17.6248 24.771C18.2144 24.771 18.7804 24.5404 19.2013 24.1288C19.6221 23.7173 19.8641 23.1575 19.8752 22.57H20.6252C20.6252 22.0358 20.4816 21.5112 20.2092 21.0511C19.9368 20.5909 19.5456 20.212 19.0764 19.9536H20.4524C21.049 19.9533 21.6211 19.7169 22.043 19.2965C22.4649 18.876 22.7021 18.3058 22.7024 17.7112C22.7023 17.4166 22.6441 17.125 22.5309 16.8529C22.4178 16.5808 22.252 16.3336 22.043 16.1253C21.834 15.9171 21.5859 15.7519 21.3128 15.6393C21.0398 15.5266 20.7471 15.4686 20.4516 15.4687H20.1728L21.132 9.52465C21.3992 7.95473 21.9752 4.56332 22.1104 3.71976C22.1784 3.29359 22.2444 2.99419 22.5 2.82636V3.13492H23.6252C23.7244 3.13461 23.8195 3.0952 23.8897 3.0253C23.9599 2.95541 23.9996 2.86068 24 2.76177V1.2668C23.9998 1.16775 23.9602 1.07282 23.89 1.00275C23.8198 0.93268 23.7246 0.893169 23.6252 0.892853ZM4.12507 23.6915C3.82675 23.6911 3.54073 23.5729 3.32978 23.3626C3.11884 23.1524 3.00019 22.8674 2.99987 22.57H5.24988C5.24956 22.8673 5.13097 23.1523 4.92011 23.3625C4.70925 23.5727 4.42333 23.691 4.12507 23.6915ZM17.6252 23.6915C17.3268 23.6912 17.0406 23.573 16.8296 23.3628C16.6186 23.1525 16.4999 22.8674 16.4996 22.57H18.7504C18.7498 22.8673 18.6311 23.1522 18.4202 23.3624C18.2093 23.5726 17.9234 23.6909 17.6252 23.6915ZM16.7024 6.87037C16.7156 6.76905 16.7648 6.67582 16.8412 6.60763C16.9175 6.53945 17.0159 6.50083 17.1184 6.49882H19.4932C19.6996 6.49882 19.8432 6.66466 19.8108 6.86838L19.5756 8.37173C19.5444 8.57504 19.3488 8.74129 19.142 8.74129H16.8768C16.8291 8.74254 16.7816 8.73349 16.7378 8.71475C16.6939 8.69601 16.6547 8.66802 16.6227 8.63271C16.5907 8.5974 16.5668 8.55562 16.5526 8.51022C16.5384 8.46482 16.5342 8.41689 16.5404 8.36973L16.7024 6.87037ZM16.2988 10.6078C16.3122 10.5066 16.3615 10.4135 16.4378 10.3454C16.5141 10.2772 16.6123 10.2385 16.7148 10.2363H18.908C19.1148 10.2363 19.258 10.4021 19.2268 10.6058L19.0496 11.7356C19.018 11.9389 18.8228 12.1052 18.616 12.1052H16.5132C16.4655 12.1063 16.4181 12.0972 16.3744 12.0784C16.3306 12.0596 16.2914 12.0316 16.2594 11.9963C16.2275 11.961 16.2036 11.9193 16.1893 11.874C16.175 11.8286 16.1707 11.7808 16.1768 11.7336L16.2988 10.6078ZM1.94626 8.3785L1.56626 6.8616C1.51666 6.66147 1.64546 6.49882 1.85226 6.49882H4.67588C4.88308 6.49882 5.06988 6.66586 5.09188 6.87037L5.25348 8.37013C5.25948 8.41724 5.25521 8.46507 5.24096 8.51038C5.22672 8.55569 5.20283 8.5974 5.17094 8.63267C5.13904 8.66794 5.09989 8.69594 5.05615 8.71475C5.01241 8.73356 4.96511 8.74275 4.91748 8.74168H2.41306C2.20666 8.74168 1.99626 8.57784 1.94626 8.3785ZM3.25467 12.1052C3.04827 12.1052 2.83787 11.9417 2.78827 11.7424L2.50187 10.5994C2.45186 10.3993 2.57987 10.2367 2.78667 10.2367H5.07828C5.28508 10.2367 5.47228 10.4037 5.49428 10.6082L5.61588 11.734C5.62195 11.7811 5.61773 11.829 5.60351 11.8743C5.58929 11.9197 5.56541 11.9614 5.5335 11.9967C5.50159 12.032 5.46241 12.06 5.41863 12.0788C5.37486 12.0976 5.32753 12.1067 5.27988 12.1056H3.25467V12.1052ZM5.64228 15.4691H4.09627C3.88867 15.4691 3.67947 15.3056 3.62947 15.1063L3.34307 13.9633C3.29347 13.7632 3.42147 13.6006 3.62867 13.6006H5.44068C5.64748 13.6006 5.83469 13.7676 5.85749 13.9721L5.97829 15.0979C5.98436 15.145 5.98014 15.1929 5.96592 15.2382C5.95169 15.2835 5.9278 15.3252 5.89589 15.3605C5.86397 15.3957 5.82478 15.4237 5.78101 15.4424C5.73724 15.4612 5.68991 15.4703 5.64228 15.4691ZM10.2391 15.0951C10.2387 15.1943 10.1989 15.2893 10.1285 15.3594C10.058 15.4294 9.96263 15.4689 9.86311 15.4691H7.9067C7.80427 15.467 7.70601 15.4283 7.62974 15.3601C7.55348 15.292 7.50429 15.1988 7.4911 15.0975L7.3695 13.9717C7.3633 13.9246 7.36741 13.8767 7.38156 13.8314C7.3957 13.786 7.41954 13.7442 7.45143 13.7089C7.48333 13.6736 7.52252 13.6456 7.56631 13.6268C7.6101 13.608 7.65745 13.599 7.7051 13.6002H9.86311C9.9627 13.6002 10.0582 13.6395 10.1287 13.7096C10.1992 13.7797 10.2389 13.8749 10.2391 13.9741V15.0951ZM10.2391 11.7316C10.2387 11.8308 10.1989 11.9258 10.1285 11.9959C10.058 12.0659 9.96263 12.1054 9.86311 12.1056H7.5439C7.3375 12.1056 7.15109 11.9385 7.12789 11.734L7.00709 10.6082C7.00097 10.5611 7.00513 10.5133 7.0193 10.4679C7.03347 10.4226 7.05731 10.3808 7.08919 10.3455C7.12107 10.3103 7.16023 10.2822 7.20399 10.2635C7.24774 10.2447 7.29506 10.2355 7.3427 10.2367H9.86311C9.9627 10.2367 10.0582 10.276 10.1287 10.3461C10.1992 10.4162 10.2389 10.5114 10.2391 10.6106V11.7316ZM10.2391 8.36774C10.2387 8.46693 10.1989 8.56192 10.1285 8.63198C10.058 8.70203 9.96263 8.74147 9.86311 8.74168H7.18229C7.0798 8.73967 6.98143 8.70106 6.90509 8.63287C6.82875 8.56468 6.77949 8.47145 6.76629 8.37013L6.60469 6.87037C6.59863 6.82326 6.60285 6.77539 6.61707 6.73005C6.63129 6.68472 6.65517 6.64298 6.68708 6.60769C6.71899 6.57241 6.75817 6.54441 6.80194 6.52562C6.84572 6.50683 6.89305 6.49769 6.94069 6.49882H9.86351C9.9631 6.49882 10.0586 6.53819 10.1291 6.6083C10.1996 6.6784 10.2393 6.77351 10.2395 6.87276V8.36774H10.2391ZM14.3027 15.0975C14.2895 15.1988 14.2402 15.292 14.1639 15.3602C14.0875 15.4283 13.9892 15.467 13.8867 15.4691H12.1187C12.0192 15.4689 11.9239 15.4294 11.8535 15.3593C11.7831 15.2893 11.7434 15.1943 11.7431 15.0951V13.9737C11.7433 13.8745 11.783 13.7795 11.8534 13.7094C11.9238 13.6393 12.0192 13.5999 12.1187 13.5998H14.0883C14.2947 13.5998 14.4467 13.7668 14.4243 13.9713L14.3027 15.0975ZM14.6651 11.7336C14.6519 11.8349 14.6026 11.9281 14.5263 11.9963C14.4499 12.0644 14.3516 12.1031 14.2491 12.1052H12.1187C12.0192 12.105 11.9239 12.0655 11.8535 11.9955C11.7831 11.9254 11.7434 11.8304 11.7431 11.7312V10.6098C11.7433 10.5106 11.783 10.4156 11.8534 10.3455C11.9238 10.2754 12.0192 10.236 12.1187 10.2359H14.4507C14.6575 10.2359 14.8091 10.4029 14.7863 10.6074L14.6651 11.7336ZM15.0275 8.37013C15.0143 8.47142 14.965 8.56461 14.8887 8.63278C14.8123 8.70095 14.714 8.73959 14.6115 8.74168H12.1187C12.0192 8.74147 11.9239 8.70202 11.8535 8.63195C11.7831 8.56188 11.7434 8.46689 11.7431 8.36774V6.87276C11.7433 6.77358 11.783 6.67853 11.8534 6.60844C11.9238 6.53834 12.0192 6.49892 12.1187 6.49882H14.8535C15.0603 6.49882 15.2119 6.66586 15.1899 6.87037L15.0275 8.37013ZM17.9204 15.4691V15.4663L17.9172 15.4691H16.1507C16.1392 15.4691 16.1292 15.4635 16.1175 15.4619C16.1155 15.4484 16.1156 15.4348 16.1131 15.4204L16.0955 15.4571C16.1004 15.4584 16.1054 15.4595 16.1103 15.4603C15.9259 15.4392 15.7939 15.2873 15.8151 15.0975L15.9359 13.9717C15.9494 13.8705 15.9987 13.7774 16.075 13.7093C16.1513 13.6411 16.2495 13.6024 16.352 13.6002H18.3824C18.5892 13.6002 18.7316 13.766 18.7004 13.9697L18.5232 15.0995C18.4924 15.3028 18.2972 15.4691 18.0904 15.4691H17.9204Z" fill="black" fill-opacity="0.7"/>
</svg>
