<svg width="30" height="30" viewBox="0 0 30 30" fill="none" xmlns="http://www.w3.org/2000/svg">
<path d="M11.7025 18.4317C11.3121 18.067 10.603 18.0717 10.0915 18.4345C9.96863 18.5217 9.785 18.5203 9.69024 18.4308C9.59638 18.3431 9.62404 18.1978 9.74692 18.1111C9.8707 18.023 10.0462 18.023 10.1446 18.1153C10.3758 17.9484 10.6052 17.7806 10.8342 17.6119C10.5114 17.3077 9.9904 17.2542 9.53472 17.4309C9.46988 17.3695 9.40505 17.3091 9.33976 17.2467C9.133 17.3953 8.92534 17.5425 8.71722 17.6888C8.78569 17.753 8.85506 17.8181 8.92489 17.8823C8.67959 18.2175 8.68095 18.6253 8.98247 18.9075C9.15068 19.0655 9.37648 19.1588 9.62767 19.1859C9.96319 19.2234 10.3354 19.1409 10.6256 18.9342C10.749 18.8475 10.9249 18.8475 11.0192 18.9361C11.1139 19.0252 11.094 19.1709 10.9707 19.2586C10.8478 19.3463 10.6637 19.3444 10.5689 19.2567C10.3363 19.4184 10.1024 19.5792 9.86662 19.7381C10.1659 20.0184 10.6746 20.0897 11.1203 19.943C11.201 20.0184 11.2803 20.0948 11.3615 20.1698C11.5705 20.0241 11.7777 19.8778 11.984 19.7292C11.9057 19.6577 11.8283 19.585 11.7519 19.5113C12.0248 19.1634 12.0131 18.7252 11.7025 18.4317Z" fill="#CC3043"/>
<path d="M19.5524 10.2028C19.8475 10.2028 20.1563 10.058 20.3753 9.78468C20.4687 9.6689 20.6197 9.64687 20.714 9.73546C20.8092 9.82406 20.8137 9.99281 20.7208 10.1086C20.6274 10.2248 20.4687 10.2464 20.3744 10.1583C20.1976 10.3744 20.0194 10.5886 19.8403 10.8014C20.1391 11.0822 20.5884 11.0958 20.9498 10.8698L21.1914 11.0962C21.3501 10.9027 21.5065 10.7086 21.6616 10.5127L21.4299 10.2956C21.6117 9.86343 21.5356 9.36515 21.2259 9.07312C20.8346 8.70749 20.227 8.80593 19.8416 9.28406C19.7482 9.40031 19.5895 9.42187 19.4952 9.33374C19.4005 9.24468 19.4041 9.07593 19.4961 8.96015C19.5909 8.84484 19.741 8.8214 19.8389 8.91281C20.0135 8.69437 20.1862 8.47312 20.3562 8.2514C20.0325 7.94765 19.5787 7.95328 19.2132 8.21437L19.0169 8.03062C18.8623 8.22656 18.7049 8.42109 18.5467 8.61421C18.6161 8.6789 18.6854 8.74453 18.7544 8.80828C18.5934 9.22312 18.6532 9.68812 18.9557 9.97031C19.1243 10.1292 19.3315 10.2066 19.5524 10.2028Z" fill="#CC3043"/>
<path d="M27.0667 14.8561C27.4269 14.4041 27.7753 13.942 28.1113 13.4705C27.9703 12.3023 27.8157 11.122 27.6461 9.93375L27.5877 9.87938L27.8012 9.55594L27.2662 9.05344C24.6215 6.57141 21.9776 4.08984 19.3329 1.60875L18.6179 0.9375L18.0747 1.76109C17.1492 3.15782 16.1492 4.5002 15.0795 5.78203C15.138 5.52516 15.2019 5.26031 15.2717 4.98516C15.5578 3.8625 15.2227 3.10031 14.8908 2.65922C14.2728 1.83656 13.1031 1.38281 11.5955 1.38281C7.32072 1.38281 1.13622 4.85812 1.13622 11.1417C1.13622 12.0042 1.6921 12.607 2.48738 12.607C3.07455 12.607 3.75285 12.2677 4.51458 11.595C4.58621 11.8495 4.69413 12.09 4.85191 12.2944C5.15388 12.6863 5.59913 12.9023 6.10604 12.9023C6.21985 12.9023 6.33683 12.892 6.45698 12.8705C6.51094 13.1409 6.60978 13.4086 6.76757 13.642C5.29316 14.7407 3.76068 15.7535 2.17725 16.6758L1.17114 17.2594L1.97412 18.0131C1.80999 18.1181 1.6454 18.2236 1.48172 18.3258C1.30036 19.192 1.10857 20.047 0.906799 20.8866C3.81088 23.6128 6.71452 26.3367 9.61815 29.0625C12.1462 27.6407 14.592 26.0677 16.943 24.3516C16.9439 24.353 16.9439 24.3548 16.9448 24.3558C17.1633 24.7481 17.5197 25.0163 18.0071 25.1592C17.1633 26.1666 16.86 27.0295 17.1048 27.7341C17.3003 28.2952 17.8031 28.6303 18.4506 28.6303C24.5652 28.6303 27.9468 22.275 27.9468 17.8819C27.9468 16.8342 27.745 15.9314 27.3632 15.2719C27.2764 15.1245 27.1772 14.9854 27.0667 14.8561ZM14.7476 7.47234C16.208 5.82 17.5578 4.07859 18.7675 2.24391C21.4122 4.72547 24.0565 7.20656 26.7008 9.68906C25.6032 11.3458 24.4041 12.9281 23.1107 14.4262C22.6917 14.5177 22.2959 14.5969 21.9332 14.6578C23.0658 13.3959 24.139 12.0858 25.1243 10.7128L24.8599 10.4648C24.5675 10.1906 24.5253 9.69984 24.757 9.36516C24.8269 9.26297 24.8971 9.16219 24.967 9.06094C23.2036 7.40719 21.4408 5.75203 19.6788 4.09828L19.4689 4.4025C19.2368 4.73625 18.8047 4.78266 18.5136 4.50844L18.2488 4.26141C17.1243 5.82797 15.8915 7.31766 14.5775 8.73891C14.617 8.35734 14.6718 7.93687 14.7476 7.47234ZM17.9418 12.0675C17.0164 11.1984 15.7206 11.002 14.5612 11.3967C14.5263 11.1609 14.476 10.6664 14.4991 9.88828C15.8823 8.4503 17.1756 6.92284 18.3712 5.31516C18.8214 5.55656 19.3569 5.50266 19.7523 5.16891L24.0497 9.20156C23.8475 9.71625 23.8965 10.32 24.1884 10.7756C23.1456 12.1833 22.0139 13.5262 20.816 14.8139C20.3135 14.8718 19.8085 14.9023 19.303 14.9053C19.1583 14.9053 19.0305 14.9016 18.9112 14.8964C19.074 13.8877 18.7398 12.8161 17.9418 12.0675ZM6.20352 12.0314C6.17179 12.0342 6.13642 12.0413 6.10649 12.0413C5.09313 12.0413 5.19242 10.5398 5.29988 9.81281C5.85893 9.23719 6.38489 8.63625 6.93397 8.06812C7.51342 7.45781 8.12235 6.88031 8.80745 6.42C9.4921 5.96344 10.2697 5.63953 11.1126 5.55891C10.2706 5.46891 9.39054 5.69578 8.64014 6.13078C7.88023 6.55781 7.2314 7.14937 6.63472 7.76719C6.04211 8.39156 5.49847 9.05156 4.95076 9.70078C4.39896 10.3416 3.85305 10.9847 3.18699 11.5144C2.90724 11.6728 2.67237 11.7455 2.48693 11.7455C2.14914 11.7455 1.97322 11.5102 1.97322 11.1412C1.97322 5.26453 7.87978 2.24344 11.5946 2.24344C13.5442 2.24344 14.8908 3.07687 14.4592 4.76719C13.2087 9.67875 13.7836 11.797 13.7836 11.797C13.2939 12.7416 12.3499 13.0486 12.3499 13.0486C11.8355 12.9052 11.3049 12.8335 10.7721 12.8353C9.70475 12.8353 8.94982 13.1091 8.94982 13.1091C8.55082 13.3425 8.24251 13.4367 8.00447 13.4367C7.14299 13.4367 7.20828 12.1955 7.25634 11.7656C7.37015 11.7103 7.48078 11.6503 7.58733 11.5856C8.01444 11.3316 8.39168 11.0128 8.75984 10.7006C9.12348 10.3828 9.47714 10.0655 9.85165 9.78656C10.2275 9.51188 10.632 9.28312 11.1117 9.19125C10.9904 9.16893 10.867 9.1606 10.744 9.16641C10.374 9.18375 10.0026 9.31875 9.67936 9.50016C9.2391 9.74063 8.85869 10.0584 8.48961 10.3711C8.12553 10.6912 7.77277 11.0119 7.40551 11.3067C7.03961 11.5973 6.65376 11.8552 6.20352 12.0314ZM15.3819 21.6445C13.8235 22.8155 12.2011 23.8926 10.5227 24.8705C7.87842 22.388 5.23459 19.9083 2.58985 17.4253C4.27195 16.4455 5.89787 15.3661 7.45947 14.1923C7.6295 14.2575 7.81131 14.2987 8.00492 14.2987C8.20351 14.2987 8.41163 14.2631 8.63108 14.1938C7.37732 15.1734 6.07845 16.0898 4.73901 16.9397C4.82697 17.0227 4.91584 17.1056 5.00335 17.1891C5.29444 17.4623 5.24592 17.8669 4.89045 18.0839C4.78163 18.1495 4.67372 18.2156 4.56581 18.2803L9.85437 23.2439C9.96319 23.1783 10.0707 23.1136 10.179 23.0461C10.5349 22.8295 11.0586 22.8698 11.3502 23.1431L11.6145 23.3925C12.9945 22.5154 14.3315 21.5678 15.6204 20.5533C15.4481 20.9484 15.3692 21.3131 15.3819 21.6445ZM15.9228 19.3969C14.5632 20.5117 13.1475 21.5515 11.6816 22.5117C11.1956 22.2384 10.5517 22.193 10.0054 22.3833L5.7075 18.3506C6.06206 17.9798 6.11964 17.4764 5.86347 17.0536C7.43107 16.0283 8.94165 14.9126 10.388 13.7119C10.5105 13.703 10.6374 13.6969 10.7725 13.6969C11.2305 13.6952 11.6867 13.7566 12.1291 13.8792L12.2067 13.9012C11.9836 14.8716 12.2506 15.8944 13.0573 16.6514C13.7981 17.3461 14.8351 17.6648 15.8407 17.5842C15.9863 18.2719 15.9781 18.9084 15.9228 19.3969ZM18.4501 27.7692C17.8929 27.7692 17.6544 27.3305 18.0933 26.5139C18.6079 25.8337 19.2313 25.2741 19.852 24.7102C20.4836 24.1477 21.1257 23.588 21.7337 22.9795C22.334 22.3664 22.9103 21.7003 23.3256 20.9189C23.7486 20.1478 23.9699 19.2431 23.8824 18.3778C23.8035 19.2441 23.4893 20.0438 23.0445 20.7478C22.5965 21.4514 22.0343 22.0772 21.4408 22.673C20.8881 23.2364 20.3036 23.7769 19.7441 24.3511C19.5283 24.3848 19.2436 24.4177 18.9507 24.4177C18.2556 24.4177 17.522 24.2306 17.5814 23.4314C17.7528 22.9645 18.0053 22.5652 18.2891 22.1859C18.5762 21.8086 18.8881 21.4462 19.1996 21.0722C19.5043 20.6925 19.8135 20.3016 20.047 19.8497C20.2819 19.4067 20.4374 18.8761 20.3476 18.3778C20.2588 18.8709 20.0361 19.2867 19.7691 19.673C19.4979 20.0578 19.1892 20.4216 18.879 20.7956C18.5757 21.1744 18.2651 21.562 18.0185 22.0008C17.9549 22.111 17.8966 22.2244 17.8439 22.3406C17.7051 22.3568 17.5655 22.3652 17.4259 22.3659C16.7176 22.3659 15.6893 22.132 16.5363 20.5997C16.5363 20.5997 17.094 18.9745 16.5952 17.1056C16.5952 17.1056 16.8936 16.1353 17.8122 15.6319C17.8122 15.6319 18.2851 15.7673 19.303 15.7673C20.4102 15.7673 22.1626 15.607 24.6532 14.9372C24.8438 14.8841 25.0402 14.8562 25.2376 14.8542C29.2222 14.8542 26.7906 27.7692 18.4501 27.7692Z" fill="#fff"/>
</svg>
