<svg width="30" height="30" viewBox="0 0 30 30" fill="none" xmlns="http://www.w3.org/2000/svg">
<path d="M0.9375 9.375H13.125L14.0625 11.25H1.875L0.9375 9.375ZM2.1875 13.125H14.375L15.3125 15H3.125L2.1875 13.125ZM22.5 23.125C23.5375 23.125 24.375 22.2875 24.375 21.25C24.375 20.2125 23.5375 19.375 22.5 19.375C21.4625 19.375 20.625 20.2125 20.625 21.25C20.625 22.2875 21.4625 23.125 22.5 23.125ZM24.375 11.875H21.25V15H26.825L24.375 11.875ZM10 23.125C11.0375 23.125 11.875 22.2875 11.875 21.25C11.875 20.2125 11.0375 19.375 10 19.375C8.9625 19.375 8.125 20.2125 8.125 21.25C8.125 22.2875 8.9625 23.125 10 23.125ZM25 10L28.75 15V21.25H26.25C26.25 23.325 24.575 25 22.5 25C20.425 25 18.75 23.325 18.75 21.25H13.75C13.75 23.325 12.0625 25 10 25C7.925 25 6.25 23.325 6.25 21.25H3.75V16.875H6.25V18.75H7.2C7.8875 17.9875 8.8875 17.5 10 17.5C11.1125 17.5 12.1125 17.9875 12.8 18.75H18.75V7.5H3.75C3.75 6.1125 4.8625 5 6.25 5H21.25V10H25Z" fill="#cc3043"/>
</svg>
