<svg width="23" height="23" viewBox="0 0 23 23" fill="none" xmlns="http://www.w3.org/2000/svg">
<path d="M9.24976 13.2663C7.83799 11.8746 6.74803 10.1908 6.05642 8.33297L8.05642 5.81963C8.10774 5.74512 8.13521 5.65677 8.13521 5.5663C8.13521 5.47582 8.10774 5.38748 8.05642 5.31297L5.04976 0.646296C4.94324 0.469131 4.79699 0.319159 4.62256 0.208227C4.44813 0.0972939 4.25029 0.0284405 4.04467 0.00710297C3.83906 -0.0142345 3.6313 0.0125294 3.4378 0.0852814C3.24431 0.158033 3.07038 0.274778 2.92976 0.426298L0.769754 2.61296C0.460337 2.92612 0.233263 3.311 0.108791 3.73327C-0.0156784 4.15554 -0.0336704 4.60205 0.0564213 5.03297C0.944208 9.33149 3.02342 13.2935 6.05642 16.4663C9.11959 19.5686 13.0172 21.7155 17.2764 22.6463C17.7007 22.7383 18.1415 22.7191 18.5561 22.5906C18.9707 22.4621 19.3452 22.2287 19.6431 21.913L21.8298 19.6463C21.9739 19.506 22.0844 19.335 22.1531 19.1459C22.2218 18.9569 22.2468 18.7548 22.2263 18.5547C22.2057 18.3546 22.1402 18.1618 22.0346 17.9906C21.929 17.8194 21.786 17.6744 21.6164 17.5663L17.0098 14.4596C16.9374 14.406 16.8498 14.3771 16.7598 14.3771C16.6697 14.3771 16.5821 14.406 16.5098 14.4596L14.0498 16.5063C12.2291 15.7959 10.5895 14.6891 9.24976 13.2663Z" fill="black" fill-opacity="0.7"/>
</svg>
